# xmcd
#
# Track frame offsets:
#	150
#	11602
#	24027
#	35317
#	46170
#	59285
#	72382
#	84757
#	98410
#	108715
#	120402
#	130050
#	141607
#	155800
#
# Disc length: 2223 seconds
#
# Revision: 1
# Processed by: cddbd v1.5.2PL0 Copyright (c) Steve Scherf et al.
# Submitted via: EasyCDDAExtractor 9.1.3.1
#
DISCID=ae08ad0e
DTITLE=Zilo and Zalo - BIS (Dois em um) - Vol. 01
DYEAR=2000
DGENRE=Country
TTITLE0=Recordação
TTITLE1=O verdadeiro amor
TTITLE2=Triste recordação
TTITLE3=Amigo fiel
TTITLE4=Boneca loira
TTITLE5=Meu último amor
TTITLE6=Remorso
TTITLE7=Preciso te esquecer
TTITLE8=Derrotada
TTITLE9=Maior castigo
TTITLE10=Mulher inocente
TTITLE11=Meu regresso
TTITLE12=Incêndio
TTITLE13=Só me resta gargalhar
EXTD=
EXTT0=
EXTT1=
EXTT2=
EXTT3=
EXTT4=
EXTT5=
EXTT6=
EXTT7=
EXTT8=
EXTT9=
EXTT10=
EXTT11=
EXTT12=
EXTT13=
PLAYORDER=
